<svg version="1.1" xmlns="http://www.w3.org/2000/svg" xmlns:xlink="http://www.w3.org/1999/xlink" width="897.36083984375" height="836"><defs/><g><g transform="translate(-78,-30) scale(1,1)"><rect fill="#C0C0C0" stroke="none" x="327" y="351" width="82.353515625" height="72" opacity="0.2"/></g><g transform="translate(-78,-30) scale(1,1)"><rect fill="#ffffff" stroke="none" x="320" y="344" width="82.353515625" height="72"/></g><g transform="translate(-78,-30) scale(1,1)"><path fill="none" stroke="#000000" d="M 320 344 L 402.353515625 344 L 402.353515625 416 L 320 416 L 320 344 Z Z" stroke-miterlimit="10"/></g><g transform="translate(-78,-30) scale(1,1)"><path fill="none" stroke="#000000" d="M 320 369 L 402.353515625 369" stroke-miterlimit="10"/></g><g transform="translate(-78,-30) scale(1,1)"><path fill="none" stroke="#000000" d="M 320 407 L 402.353515625 407" stroke-miterlimit="10"/></g><g transform="translate(-78,-30) scale(1,1)"><g><path fill="none" stroke="none"/><text fill="#000000" stroke="none" font-family="Arial" font-size="13px" font-style="normal" font-weight="bold" text-decoration="none" x="326.616943359375" y="362">Vocabulary</text></g></g><g transform="translate(-78,-30) scale(1,1)"><g><path fill="none" stroke="none"/><text fill="#000000" stroke="none" font-family="Arial" font-size="13px" font-style="normal" font-weight="normal" text-decoration="none" x="325" y="385">-conceptList</text></g></g><g transform="translate(-78,-30) scale(1,1)"><g><path fill="none" stroke="none"/><text fill="#000000" stroke="none" font-family="Arial" font-size="13px" font-style="normal" font-weight="normal" text-decoration="none" x="325" y="400">-contextList</text></g></g><g transform="translate(-78,-30) scale(1,1)"><rect fill="#C0C0C0" stroke="none" x="135" y="271" width="96.80078125" height="72" opacity="0.2"/></g><g transform="translate(-78,-30) scale(1,1)"><rect fill="#ffffff" stroke="none" x="128" y="264" width="96.80078125" height="72"/></g><g transform="translate(-78,-30) scale(1,1)"><path fill="none" stroke="#000000" d="M 128 264 L 224.80078125 264 L 224.80078125 336 L 128 336 L 128 264 Z Z" stroke-miterlimit="10"/></g><g transform="translate(-78,-30) scale(1,1)"><path fill="none" stroke="#000000" d="M 128 289 L 224.80078125 289" stroke-miterlimit="10"/></g><g transform="translate(-78,-30) scale(1,1)"><path fill="none" stroke="#000000" d="M 128 327 L 224.80078125 327" stroke-miterlimit="10"/></g><g transform="translate(-78,-30) scale(1,1)"><g><path fill="none" stroke="none"/><text fill="#000000" stroke="none" font-family="Arial" font-size="13px" font-style="normal" font-weight="bold" text-decoration="none" x="150.400390625" y="282">Concept</text></g></g><g transform="translate(-78,-30) scale(1,1)"><g><path fill="none" stroke="none"/><text fill="#000000" stroke="none" font-family="Arial" font-size="13px" font-style="normal" font-weight="normal" text-decoration="none" x="133" y="304.5">-conceptName</text></g></g><g transform="translate(-78,-30) scale(1,1)"><g><path fill="none" stroke="none"/><text fill="#000000" stroke="none" font-family="Arial" font-size="13px" font-style="normal" font-weight="normal" text-decoration="none" x="133" y="320">-properties</text></g></g><g transform="translate(-78,-30) scale(1,1)"><rect fill="#C0C0C0" stroke="none" x="135" y="375" width="93.1826171875" height="72" opacity="0.2"/></g><g transform="translate(-78,-30) scale(1,1)"><rect fill="#ffffff" stroke="none" x="128" y="368" width="93.1826171875" height="72"/></g><g transform="translate(-78,-30) scale(1,1)"><path fill="none" stroke="#000000" d="M 128 368 L 221.1826171875 368 L 221.1826171875 440 L 128 440 L 128 368 Z Z" stroke-miterlimit="10"/></g><g transform="translate(-78,-30) scale(1,1)"><path fill="none" stroke="#000000" d="M 128 393 L 221.1826171875 393" stroke-miterlimit="10"/></g><g transform="translate(-78,-30) scale(1,1)"><path fill="none" stroke="#000000" d="M 128 431 L 221.1826171875 431" stroke-miterlimit="10"/></g><g transform="translate(-78,-30) scale(1,1)"><g><path fill="none" stroke="none"/><text fill="#000000" stroke="none" font-family="Arial" font-size="13px" font-style="normal" font-weight="bold" text-decoration="none" x="150.397216796875" y="386">Context</text></g></g><g transform="translate(-78,-30) scale(1,1)"><g><path fill="none" stroke="none"/><text fill="#000000" stroke="none" font-family="Arial" font-size="13px" font-style="normal" font-weight="normal" text-decoration="none" x="133" y="408.5">-contextName</text></g></g><g transform="translate(-78,-30) scale(1,1)"><g><path fill="none" stroke="none"/><text fill="#000000" stroke="none" font-family="Arial" font-size="13px" font-style="normal" font-weight="normal" text-decoration="none" x="133" y="424">-properties</text></g></g><g transform="translate(-78,-30) scale(1,1)"><rect fill="#C0C0C0" stroke="none" x="463" y="471" width="129.326171875" height="222" opacity="0.2"/></g><g transform="translate(-78,-30) scale(1,1)"><rect fill="#ffffff" stroke="none" x="456" y="464" width="129.326171875" height="222"/></g><g transform="translate(-78,-30) scale(1,1)"><path fill="none" stroke="#000000" d="M 456 464 L 585.326171875 464 L 585.326171875 686 L 456 686 L 456 464 Z Z" stroke-miterlimit="10"/></g><g transform="translate(-78,-30) scale(1,1)"><path fill="none" stroke="#000000" d="M 456 489 L 585.326171875 489" stroke-miterlimit="10"/></g><g transform="translate(-78,-30) scale(1,1)"><path fill="none" stroke="#000000" d="M 456 677 L 585.326171875 677" stroke-miterlimit="10"/></g><g transform="translate(-78,-30) scale(1,1)"><g><path fill="none" stroke="none"/><text fill="#000000" stroke="none" font-family="Arial" font-size="13px" font-style="normal" font-weight="bold" text-decoration="none" x="489.600830078125" y="482">Capability</text></g></g><g transform="translate(-78,-30) scale(1,1)"><g><path fill="none" stroke="none"/><text fill="#000000" stroke="none" font-family="Arial" font-size="13px" font-style="normal" font-weight="normal" text-decoration="none" x="461" y="503.5">-name</text></g></g><g transform="translate(-78,-30) scale(1,1)"><g><path fill="none" stroke="none"/><text fill="#000000" stroke="none" font-family="Arial" font-size="13px" font-style="normal" font-weight="normal" text-decoration="none" x="461" y="519.5">-context</text></g></g><g transform="translate(-78,-30) scale(1,1)"><g><path fill="none" stroke="none"/><text fill="#000000" stroke="none" font-family="Arial" font-size="13px" font-style="normal" font-weight="normal" text-decoration="none" x="461" y="535">-isAggregateMethod</text></g></g><g transform="translate(-78,-30) scale(1,1)"><g><path fill="none" stroke="none"/><text fill="#000000" stroke="none" font-family="Arial" font-size="13px" font-style="normal" font-weight="normal" text-decoration="none" x="461" y="550">-isRenderingMethod</text></g></g><g transform="translate(-78,-30) scale(1,1)"><g><path fill="none" stroke="none"/><text fill="#000000" stroke="none" font-family="Arial" font-size="13px" font-style="normal" font-weight="normal" text-decoration="none" x="461" y="565">-accessLevel</text></g></g><g transform="translate(-78,-30) scale(1,1)"><g><path fill="none" stroke="none"/><text fill="#000000" stroke="none" font-family="Arial" font-size="13px" font-style="normal" font-weight="normal" text-decoration="none" x="461" y="580">-order</text></g></g><g transform="translate(-78,-30) scale(1,1)"><g><path fill="none" stroke="none"/><text fill="#000000" stroke="none" font-family="Arial" font-size="13px" font-style="normal" font-weight="normal" text-decoration="none" x="461" y="595">-description</text></g></g><g transform="translate(-78,-30) scale(1,1)"><g><path fill="none" stroke="none"/><text fill="#000000" stroke="none" font-family="Arial" font-size="13px" font-style="normal" font-weight="normal" text-decoration="none" x="461" y="610">-method</text></g></g><g transform="translate(-78,-30) scale(1,1)"><g><path fill="none" stroke="none"/><text fill="#000000" stroke="none" font-family="Arial" font-size="13px" font-style="normal" font-weight="normal" text-decoration="none" x="461" y="625">-atomicIntent</text></g></g><g transform="translate(-78,-30) scale(1,1)"><g><path fill="none" stroke="none"/><text fill="#000000" stroke="none" font-family="Arial" font-size="13px" font-style="normal" font-weight="normal" text-decoration="none" x="461" y="640">-apiEndpoint</text></g></g><g transform="translate(-78,-30) scale(1,1)"><g><path fill="none" stroke="none"/><text fill="#000000" stroke="none" font-family="Arial" font-size="13px" font-style="normal" font-weight="normal" text-decoration="none" x="461" y="655">-input</text></g></g><g transform="translate(-78,-30) scale(1,1)"><g><path fill="none" stroke="none"/><text fill="#000000" stroke="none" font-family="Arial" font-size="13px" font-style="normal" font-weight="normal" text-decoration="none" x="461" y="670">-usedMappingList</text></g></g><g transform="translate(-78,-30) scale(1,1)"><rect fill="#C0C0C0" stroke="none" x="527" y="47" width="79.458984375" height="102" opacity="0.2"/></g><g transform="translate(-78,-30) scale(1,1)"><rect fill="#ffffff" stroke="none" x="520" y="40" width="79.458984375" height="102"/></g><g transform="translate(-78,-30) scale(1,1)"><path fill="none" stroke="#000000" d="M 520 40 L 599.458984375 40 L 599.458984375 142 L 520 142 L 520 40 Z Z" stroke-miterlimit="10"/></g><g transform="translate(-78,-30) scale(1,1)"><path fill="none" stroke="#000000" d="M 520 65 L 599.458984375 65" stroke-miterlimit="10"/></g><g transform="translate(-78,-30) scale(1,1)"><path fill="none" stroke="#000000" d="M 520 133 L 599.458984375 133" stroke-miterlimit="10"/></g><g transform="translate(-78,-30) scale(1,1)"><g><path fill="none" stroke="none"/><text fill="#000000" stroke="none" font-family="Arial" font-size="13px" font-style="normal" font-weight="bold" text-decoration="none" x="536.5986328125" y="58">Service</text></g></g><g transform="translate(-78,-30) scale(1,1)"><g><path fill="none" stroke="none"/><text fill="#000000" stroke="none" font-family="Arial" font-size="13px" font-style="normal" font-weight="normal" text-decoration="none" x="525" y="79.5">-name</text></g></g><g transform="translate(-78,-30) scale(1,1)"><g><path fill="none" stroke="none"/><text fill="#000000" stroke="none" font-family="Arial" font-size="13px" font-style="normal" font-weight="normal" text-decoration="none" x="525" y="95.5">-type</text></g></g><g transform="translate(-78,-30) scale(1,1)"><g><path fill="none" stroke="none"/><text fill="#000000" stroke="none" font-family="Arial" font-size="13px" font-style="normal" font-weight="normal" text-decoration="none" x="525" y="111">-config</text></g></g><g transform="translate(-78,-30) scale(1,1)"><g><path fill="none" stroke="none"/><text fill="#000000" stroke="none" font-family="Arial" font-size="13px" font-style="normal" font-weight="normal" text-decoration="none" x="525" y="126">-description</text></g></g><g transform="translate(-78,-30) scale(1,1)"><rect fill="#C0C0C0" stroke="none" x="311" y="175" width="101.5107421875" height="117" opacity="0.2"/></g><g transform="translate(-78,-30) scale(1,1)"><rect fill="#ffffff" stroke="none" x="304" y="168" width="101.5107421875" height="117"/></g><g transform="translate(-78,-30) scale(1,1)"><path fill="none" stroke="#000000" d="M 304 168 L 405.5107421875 168 L 405.5107421875 285 L 304 285 L 304 168 Z Z" stroke-miterlimit="10"/></g><g transform="translate(-78,-30) scale(1,1)"><path fill="none" stroke="#000000" d="M 304 193 L 405.5107421875 193" stroke-miterlimit="10"/></g><g transform="translate(-78,-30) scale(1,1)"><path fill="none" stroke="#000000" d="M 304 276 L 405.5107421875 276" stroke-miterlimit="10"/></g><g transform="translate(-78,-30) scale(1,1)"><g><path fill="none" stroke="none"/><text fill="#000000" stroke="none" font-family="Arial" font-size="13px" font-style="normal" font-weight="bold" text-decoration="none" x="308.5" y="186">ServiceSystem</text></g></g><g transform="translate(-78,-30) scale(1,1)"><g><path fill="none" stroke="none"/><text fill="#000000" stroke="none" font-family="Arial" font-size="13px" font-style="normal" font-weight="normal" text-decoration="none" x="309" y="207.5">-name</text></g></g><g transform="translate(-78,-30) scale(1,1)"><g><path fill="none" stroke="none"/><text fill="#000000" stroke="none" font-family="Arial" font-size="13px" font-style="normal" font-weight="normal" text-decoration="none" x="309" y="223.5">-type</text></g></g><g transform="translate(-78,-30) scale(1,1)"><g><path fill="none" stroke="none"/><text fill="#000000" stroke="none" font-family="Arial" font-size="13px" font-style="normal" font-weight="normal" text-decoration="none" x="309" y="239">-description</text></g></g><g transform="translate(-78,-30) scale(1,1)"><g><path fill="none" stroke="none"/><text fill="#000000" stroke="none" font-family="Arial" font-size="13px" font-style="normal" font-weight="normal" text-decoration="none" x="309" y="254">-config</text></g></g><g transform="translate(-78,-30) scale(1,1)"><g><path fill="none" stroke="none"/><text fill="#000000" stroke="none" font-family="Arial" font-size="13px" font-style="normal" font-weight="normal" text-decoration="none" x="309" y="269">-service</text></g></g><g transform="translate(-78,-30) scale(1,1)"><rect fill="#C0C0C0" stroke="none" x="519" y="207" width="96.41357421875" height="72" opacity="0.2"/></g><g transform="translate(-78,-30) scale(1,1)"><rect fill="#ffffff" stroke="none" x="512" y="200" width="96.41357421875" height="72"/></g><g transform="translate(-78,-30) scale(1,1)"><path fill="none" stroke="#000000" d="M 512 200 L 608.41357421875 200 L 608.41357421875 272 L 512 272 L 512 200 Z Z" stroke-miterlimit="10"/></g><g transform="translate(-78,-30) scale(1,1)"><path fill="none" stroke="#000000" d="M 512 225 L 608.41357421875 225" stroke-miterlimit="10"/></g><g transform="translate(-78,-30) scale(1,1)"><path fill="none" stroke="#000000" d="M 512 263 L 608.41357421875 263" stroke-miterlimit="10"/></g><g transform="translate(-78,-30) scale(1,1)"><g><path fill="none" stroke="none"/><text fill="#000000" stroke="none" font-family="Arial" font-size="13px" font-style="normal" font-weight="bold" text-decoration="none" x="516.5" y="218">ServiceConfig</text></g></g><g transform="translate(-78,-30) scale(1,1)"><g><path fill="none" stroke="none"/><text fill="#000000" stroke="none" font-family="Arial" font-size="13px" font-style="normal" font-weight="normal" text-decoration="none" x="517" y="240.5">-context</text></g></g><g transform="translate(-78,-30) scale(1,1)"><g><path fill="none" stroke="none"/><text fill="#000000" stroke="none" font-family="Arial" font-size="13px" font-style="normal" font-weight="normal" text-decoration="none" x="517" y="256">-properties</text></g></g><g transform="translate(-78,-30) scale(1,1)"><rect fill="#C0C0C0" stroke="none" x="655" y="295" width="98.5400390625" height="72" opacity="0.2"/></g><g transform="translate(-78,-30) scale(1,1)"><rect fill="#ffffff" stroke="none" x="648" y="288" width="98.5400390625" height="72"/></g><g transform="translate(-78,-30) scale(1,1)"><path fill="none" stroke="#000000" d="M 648 288 L 746.5400390625 288 L 746.5400390625 360 L 648 360 L 648 288 Z Z" stroke-miterlimit="10"/></g><g transform="translate(-78,-30) scale(1,1)"><path fill="none" stroke="#000000" d="M 648 313 L 746.5400390625 313" stroke-miterlimit="10"/></g><g transform="translate(-78,-30) scale(1,1)"><path fill="none" stroke="#000000" d="M 648 351 L 746.5400390625 351" stroke-miterlimit="10"/></g><g transform="translate(-78,-30) scale(1,1)"><g><path fill="none" stroke="none"/><text fill="#000000" stroke="none" font-family="Arial" font-size="13px" font-style="normal" font-weight="bold" text-decoration="none" x="652.5" y="306">ContextConfig</text></g></g><g transform="translate(-78,-30) scale(1,1)"><g><path fill="none" stroke="none"/><text fill="#000000" stroke="none" font-family="Arial" font-size="13px" font-style="normal" font-weight="normal" text-decoration="none" x="653" y="327.5">-name</text></g></g><g transform="translate(-78,-30) scale(1,1)"><g><path fill="none" stroke="none"/><text fill="#000000" stroke="none" font-family="Arial" font-size="13px" font-style="normal" font-weight="normal" text-decoration="none" x="653" y="344">-value</text></g></g><g transform="translate(-78,-30) scale(1,1)"><rect fill="#C0C0C0" stroke="none" x="655" y="535" width="115.919921875" height="87" opacity="0.2"/></g><g transform="translate(-78,-30) scale(1,1)"><rect fill="#ffffff" stroke="none" x="648" y="528" width="115.919921875" height="87"/></g><g transform="translate(-78,-30) scale(1,1)"><path fill="none" stroke="#000000" d="M 648 528 L 763.919921875 528 L 763.919921875 615 L 648 615 L 648 528 Z Z" stroke-miterlimit="10"/></g><g transform="translate(-78,-30) scale(1,1)"><path fill="none" stroke="#000000" d="M 648 553 L 763.919921875 553" stroke-miterlimit="10"/></g><g transform="translate(-78,-30) scale(1,1)"><path fill="none" stroke="#000000" d="M 648 606 L 763.919921875 606" stroke-miterlimit="10"/></g><g transform="translate(-78,-30) scale(1,1)"><g><path fill="none" stroke="none"/><text fill="#000000" stroke="none" font-family="Arial" font-size="13px" font-style="normal" font-weight="bold" text-decoration="none" x="652.5" y="546">AggregateDetails</text></g></g><g transform="translate(-78,-30) scale(1,1)"><g><path fill="none" stroke="none"/><text fill="#000000" stroke="none" font-family="Arial" font-size="13px" font-style="normal" font-weight="normal" text-decoration="none" x="653" y="569">-resultName</text></g></g><g transform="translate(-78,-30) scale(1,1)"><g><path fill="none" stroke="none"/><text fill="#000000" stroke="none" font-family="Arial" font-size="13px" font-style="normal" font-weight="normal" text-decoration="none" x="653" y="584">-storeResult</text></g></g><g transform="translate(-78,-30) scale(1,1)"><g><path fill="none" stroke="none"/><text fill="#000000" stroke="none" font-family="Arial" font-size="13px" font-style="normal" font-weight="normal" text-decoration="none" x="653" y="599">-dataSource</text></g></g><g transform="translate(-78,-30) scale(1,1)"><rect fill="#C0C0C0" stroke="none" x="679" y="687" width="115.91357421875" height="57" opacity="0.2"/></g><g transform="translate(-78,-30) scale(1,1)"><rect fill="#ffffff" stroke="none" x="672" y="680" width="115.91357421875" height="57"/></g><g transform="translate(-78,-30) scale(1,1)"><path fill="none" stroke="#000000" d="M 672 680 L 787.91357421875 680 L 787.91357421875 737 L 672 737 L 672 680 Z Z" stroke-miterlimit="10"/></g><g transform="translate(-78,-30) scale(1,1)"><path fill="none" stroke="#000000" d="M 672 705 L 787.91357421875 705" stroke-miterlimit="10"/></g><g transform="translate(-78,-30) scale(1,1)"><path fill="none" stroke="#000000" d="M 672 728 L 787.91357421875 728" stroke-miterlimit="10"/></g><g transform="translate(-78,-30) scale(1,1)"><g><path fill="none" stroke="none"/><text fill="#000000" stroke="none" font-family="Arial" font-size="13px" font-style="normal" font-weight="bold" text-decoration="none" x="676.5" y="698">RenderingDetails</text></g></g><g transform="translate(-78,-30) scale(1,1)"><g><path fill="none" stroke="none"/><text fill="#000000" stroke="none" font-family="Arial" font-size="13px" font-style="normal" font-weight="normal" text-decoration="none" x="677" y="721">-dataSource</text></g></g><g transform="translate(-78,-30) scale(1,1)"><rect fill="#C0C0C0" stroke="none" x="279" y="791" width="78.34814453125" height="72" opacity="0.2"/></g><g transform="translate(-78,-30) scale(1,1)"><rect fill="#ffffff" stroke="none" x="272" y="784" width="78.34814453125" height="72"/></g><g transform="translate(-78,-30) scale(1,1)"><path fill="none" stroke="#000000" d="M 272 784 L 350.34814453125 784 L 350.34814453125 856 L 272 856 L 272 784 Z Z" stroke-miterlimit="10"/></g><g transform="translate(-78,-30) scale(1,1)"><path fill="none" stroke="#000000" d="M 272 809 L 350.34814453125 809" stroke-miterlimit="10"/></g><g transform="translate(-78,-30) scale(1,1)"><path fill="none" stroke="#000000" d="M 272 847 L 350.34814453125 847" stroke-miterlimit="10"/></g><g transform="translate(-78,-30) scale(1,1)"><g><path fill="none" stroke="none"/><text fill="#000000" stroke="none" font-family="Arial" font-size="13px" font-style="normal" font-weight="bold" text-decoration="none" x="276.5" y="802">StoredData</text></g></g><g transform="translate(-78,-30) scale(1,1)"><g><path fill="none" stroke="none"/><text fill="#000000" stroke="none" font-family="Arial" font-size="13px" font-style="normal" font-weight="normal" text-decoration="none" x="277" y="825">-input</text></g></g><g transform="translate(-78,-30) scale(1,1)"><g><path fill="none" stroke="none"/><text fill="#000000" stroke="none" font-family="Arial" font-size="13px" font-style="normal" font-weight="normal" text-decoration="none" x="277" y="839.5">-output</text></g></g><g transform="translate(-78,-30) scale(1,1)"><rect fill="#C0C0C0" stroke="none" x="271" y="647" width="113.71728515625" height="87" opacity="0.2"/></g><g transform="translate(-78,-30) scale(1,1)"><rect fill="#ffffff" stroke="none" x="264" y="640" width="113.71728515625" height="87"/></g><g transform="translate(-78,-30) scale(1,1)"><path fill="none" stroke="#000000" d="M 264 640 L 377.71728515625 640 L 377.71728515625 727 L 264 727 L 264 640 Z Z" stroke-miterlimit="10"/></g><g transform="translate(-78,-30) scale(1,1)"><path fill="none" stroke="#000000" d="M 264 665 L 377.71728515625 665" stroke-miterlimit="10"/></g><g transform="translate(-78,-30) scale(1,1)"><path fill="none" stroke="#000000" d="M 264 718 L 377.71728515625 718" stroke-miterlimit="10"/></g><g transform="translate(-78,-30) scale(1,1)"><g><path fill="none" stroke="none"/><text fill="#000000" stroke="none" font-family="Arial" font-size="13px" font-style="normal" font-weight="bold" text-decoration="none" x="268.5" y="658">CapabilityOutput</text></g></g><g transform="translate(-78,-30) scale(1,1)"><g><path fill="none" stroke="none"/><text fill="#000000" stroke="none" font-family="Arial" font-size="13px" font-style="normal" font-weight="normal" text-decoration="none" x="269" y="680.5">-type</text></g></g><g transform="translate(-78,-30) scale(1,1)"><g><path fill="none" stroke="none"/><text fill="#000000" stroke="none" font-family="Arial" font-size="13px" font-style="normal" font-weight="normal" text-decoration="none" x="269" y="696">-dataLabel</text></g></g><g transform="translate(-78,-30) scale(1,1)"><g><path fill="none" stroke="none"/><text fill="#000000" stroke="none" font-family="Arial" font-size="13px" font-style="normal" font-weight="normal" text-decoration="none" x="269" y="711">-jsonInfo</text></g></g><g transform="translate(-78,-30) scale(1,1)"><rect fill="#C0C0C0" stroke="none" x="303" y="519" width="110.82275390625" height="87" opacity="0.2"/></g><g transform="translate(-78,-30) scale(1,1)"><rect fill="#ffffff" stroke="none" x="296" y="512" width="110.82275390625" height="87"/></g><g transform="translate(-78,-30) scale(1,1)"><path fill="none" stroke="#000000" d="M 296 512 L 406.82275390625 512 L 406.82275390625 599 L 296 599 L 296 512 Z Z" stroke-miterlimit="10"/></g><g transform="translate(-78,-30) scale(1,1)"><path fill="none" stroke="#000000" d="M 296 537 L 406.82275390625 537" stroke-miterlimit="10"/></g><g transform="translate(-78,-30) scale(1,1)"><path fill="none" stroke="#000000" d="M 296 590 L 406.82275390625 590" stroke-miterlimit="10"/></g><g transform="translate(-78,-30) scale(1,1)"><g><path fill="none" stroke="none"/><text fill="#000000" stroke="none" font-family="Arial" font-size="13px" font-style="normal" font-weight="bold" text-decoration="none" x="300.5" y="530">CustomMapping</text></g></g><g transform="translate(-78,-30) scale(1,1)"><g><path fill="none" stroke="none"/><text fill="#000000" stroke="none" font-family="Arial" font-size="13px" font-style="normal" font-weight="normal" text-decoration="none" x="301" y="553">-mappingName</text></g></g><g transform="translate(-78,-30) scale(1,1)"><g><path fill="none" stroke="none"/><text fill="#000000" stroke="none" font-family="Arial" font-size="13px" font-style="normal" font-weight="normal" text-decoration="none" x="301" y="568">-description</text></g></g><g transform="translate(-78,-30) scale(1,1)"><g><path fill="none" stroke="none"/><text fill="#000000" stroke="none" font-family="Arial" font-size="13px" font-style="normal" font-weight="normal" text-decoration="none" x="301" y="583">-schema</text></g></g><g transform="translate(-78,-30) scale(1,1)"><rect fill="#C0C0C0" stroke="none" x="615" y="431" width="173.67724609375" height="72" opacity="0.2"/></g><g transform="translate(-78,-30) scale(1,1)"><rect fill="#ffffff" stroke="none" x="608" y="424" width="173.67724609375" height="72"/></g><g transform="translate(-78,-30) scale(1,1)"><path fill="none" stroke="#000000" d="M 608 424 L 781.67724609375 424 L 781.67724609375 496 L 608 496 L 608 424 Z Z" stroke-miterlimit="10"/></g><g transform="translate(-78,-30) scale(1,1)"><path fill="none" stroke="#000000" d="M 608 449 L 781.67724609375 449" stroke-miterlimit="10"/></g><g transform="translate(-78,-30) scale(1,1)"><path fill="none" stroke="#000000" d="M 608 487 L 781.67724609375 487" stroke-miterlimit="10"/></g><g transform="translate(-78,-30) scale(1,1)"><g><path fill="none" stroke="none"/><text fill="#000000" stroke="none" font-family="Arial" font-size="13px" font-style="normal" font-weight="bold" text-decoration="none" x="612.5" y="442">AggregateDataComponent</text></g></g><g transform="translate(-78,-30) scale(1,1)"><g><path fill="none" stroke="none"/><text fill="#000000" stroke="none" font-family="Arial" font-size="13px" font-style="normal" font-weight="normal" text-decoration="none" x="613" y="464.5">-context</text></g></g><g transform="translate(-78,-30) scale(1,1)"><g><path fill="none" stroke="none"/><text fill="#000000" stroke="none" font-family="Arial" font-size="13px" font-style="normal" font-weight="normal" text-decoration="none" x="613" y="479.5">-property</text></g></g><g transform="translate(-78,-30) scale(1,1)"><rect fill="#C0C0C0" stroke="none" x="855" y="367" width="117.36083984375" height="117" opacity="0.2"/></g><g transform="translate(-78,-30) scale(1,1)"><rect fill="#ffffff" stroke="none" x="848" y="360" width="117.36083984375" height="117"/></g><g transform="translate(-78,-30) scale(1,1)"><path fill="none" stroke="#000000" d="M 848 360 L 965.36083984375 360 L 965.36083984375 477 L 848 477 L 848 360 Z Z" stroke-miterlimit="10"/></g><g transform="translate(-78,-30) scale(1,1)"><path fill="none" stroke="#000000" d="M 848 385 L 965.36083984375 385" stroke-miterlimit="10"/></g><g transform="translate(-78,-30) scale(1,1)"><path fill="none" stroke="#000000" d="M 848 468 L 965.36083984375 468" stroke-miterlimit="10"/></g><g transform="translate(-78,-30) scale(1,1)"><g><path fill="none" stroke="none"/><text fill="#000000" stroke="none" font-family="Arial" font-size="13px" font-style="normal" font-weight="bold" text-decoration="none" x="852.5" y="378">AggregateSource</text></g></g><g transform="translate(-78,-30) scale(1,1)"><g><path fill="none" stroke="none"/><text fill="#000000" stroke="none" font-family="Arial" font-size="13px" font-style="normal" font-weight="normal" text-decoration="none" x="853" y="400.5">-context</text></g></g><g transform="translate(-78,-30) scale(1,1)"><g><path fill="none" stroke="none"/><text fill="#000000" stroke="none" font-family="Arial" font-size="13px" font-style="normal" font-weight="normal" text-decoration="none" x="853" y="416">-from</text></g></g><g transform="translate(-78,-30) scale(1,1)"><g><path fill="none" stroke="none"/><text fill="#000000" stroke="none" font-family="Arial" font-size="13px" font-style="normal" font-weight="normal" text-decoration="none" x="853" y="430.5">-useAs</text></g></g><g transform="translate(-78,-30) scale(1,1)"><g><path fill="none" stroke="none"/><text fill="#000000" stroke="none" font-family="Arial" font-size="13px" font-style="normal" font-weight="normal" text-decoration="none" x="853" y="446">-isAggregateData</text></g></g><g transform="translate(-78,-30) scale(1,1)"><g><path fill="none" stroke="none"/><text fill="#000000" stroke="none" font-family="Arial" font-size="13px" font-style="normal" font-weight="normal" text-decoration="none" x="853" y="461">-aggregationLevel</text></g></g><g transform="translate(-78,-30) scale(1,1)"><path fill="none" stroke="#000000" d="M 455 610 L 379 651" stroke-miterlimit="10"/></g><g transform="translate(-78,-30) scale(1,1)"><path fill="none" stroke="#000000" d="M 385.94552188307813 642.4700688296047 L 379 651 L 389.94279779604517 649.8796534487631" stroke-miterlimit="10"/></g><g transform="translate(-78,-30) scale(1,1)"><path fill="none" stroke="#000000" d="M 455 567 L 408 562" stroke-miterlimit="10"/></g><g transform="translate(-78,-30) scale(1,1)"><path fill="none" stroke="#000000" d="M 418.5509594818159 558.889171490892 L 408 562 L 417.6603429315153 567.2609670637178" stroke-miterlimit="10"/></g><g transform="translate(-78,-30) scale(1,1)"><path fill="none" stroke="#000000" d="M 586 574 L 647 572" stroke-miterlimit="10"/></g><g transform="translate(-78,-30) scale(1,1)"><path fill="none" stroke="#000000" d="M 636.9807259303379 576.5402805108273 L 647 572 L 636.7048402250804 568.1257665004705" stroke-miterlimit="10"/></g><g transform="translate(-78,-30) scale(1,1)"><path fill="none" stroke="#000000" d="M 455 651 L 343 783" stroke-miterlimit="10"/></g><g transform="translate(-78,-30) scale(1,1)"><path fill="none" stroke="#000000" d="M 346.36522570174594 772.5274045253191 L 343 783 L 352.7848171906983 777.9743306371573" stroke-miterlimit="10"/></g><g transform="translate(-78,-30) scale(1,1)"><rect fill="#C0C0C0" stroke="none" x="95" y="503" width="89.58984375" height="87" opacity="0.2"/></g><g transform="translate(-78,-30) scale(1,1)"><rect fill="#ffffff" stroke="none" x="88" y="496" width="89.58984375" height="87"/></g><g transform="translate(-78,-30) scale(1,1)"><path fill="none" stroke="#000000" d="M 88 496 L 177.58984375 496 L 177.58984375 583 L 88 583 L 88 496 Z Z" stroke-miterlimit="10"/></g><g transform="translate(-78,-30) scale(1,1)"><path fill="none" stroke="#000000" d="M 88 521 L 177.58984375 521" stroke-miterlimit="10"/></g><g transform="translate(-78,-30) scale(1,1)"><path fill="none" stroke="#000000" d="M 88 574 L 177.58984375 574" stroke-miterlimit="10"/></g><g transform="translate(-78,-30) scale(1,1)"><g><path fill="none" stroke="none"/><text fill="#000000" stroke="none" font-family="Arial" font-size="13px" font-style="normal" font-weight="bold" text-decoration="none" x="101.7294921875" y="514">DataLabel</text></g></g><g transform="translate(-78,-30) scale(1,1)"><g><path fill="none" stroke="none"/><text fill="#000000" stroke="none" font-family="Arial" font-size="13px" font-style="normal" font-weight="normal" text-decoration="none" x="93" y="537">-from</text></g></g><g transform="translate(-78,-30) scale(1,1)"><g><path fill="none" stroke="none"/><text fill="#000000" stroke="none" font-family="Arial" font-size="13px" font-style="normal" font-weight="normal" text-decoration="none" x="93" y="551.5">-to</text></g></g><g transform="translate(-78,-30) scale(1,1)"><g><path fill="none" stroke="none"/><text fill="#000000" stroke="none" font-family="Arial" font-size="13px" font-style="normal" font-weight="normal" text-decoration="none" x="93" y="567">-addToGloabl</text></g></g><g transform="translate(-78,-30) scale(1,1)"><rect fill="#C0C0C0" stroke="none" x="471" y="775" width="157.51611328125" height="87" opacity="0.2"/></g><g transform="translate(-78,-30) scale(1,1)"><rect fill="#ffffff" stroke="none" x="464" y="768" width="157.51611328125" height="87"/></g><g transform="translate(-78,-30) scale(1,1)"><path fill="none" stroke="#000000" d="M 464 768 L 621.51611328125 768 L 621.51611328125 855 L 464 855 L 464 768 Z Z" stroke-miterlimit="10"/></g><g transform="translate(-78,-30) scale(1,1)"><path fill="none" stroke="#000000" d="M 464 793 L 621.51611328125 793" stroke-miterlimit="10"/></g><g transform="translate(-78,-30) scale(1,1)"><path fill="none" stroke="#000000" d="M 464 846 L 621.51611328125 846" stroke-miterlimit="10"/></g><g transform="translate(-78,-30) scale(1,1)"><g><path fill="none" stroke="none"/><text fill="#000000" stroke="none" font-family="Arial" font-size="13px" font-style="normal" font-weight="bold" text-decoration="none" x="506.28759765625" y="785.5">UpperIntent</text></g></g><g transform="translate(-78,-30) scale(1,1)"><g><path fill="none" stroke="none"/><text fill="#000000" stroke="none" font-family="Arial" font-size="13px" font-style="normal" font-weight="normal" text-decoration="none" x="469" y="807.5">-name</text></g></g><g transform="translate(-78,-30) scale(1,1)"><g><path fill="none" stroke="none"/><text fill="#000000" stroke="none" font-family="Arial" font-size="13px" font-style="normal" font-weight="normal" text-decoration="none" x="469" y="823.5">-upperIntent</text></g></g><g transform="translate(-78,-30) scale(1,1)"><g><path fill="none" stroke="none"/><text fill="#000000" stroke="none" font-family="Arial" font-size="13px" font-style="normal" font-weight="normal" text-decoration="none" x="469" y="839">-sequencedCapabilityList</text></g></g><g transform="translate(-78,-30) scale(1,1)"><path fill="none" stroke="#000000" d="M 530 687 L 538 767" stroke-miterlimit="10"/></g><g transform="translate(-78,-30) scale(1,1)"><path fill="#FFFFFF" stroke="none" d="M 532.80014933638 757.3066232366605 L 538 767 L 541.1774027765504 756.4688978926434 L 535.810918181538 745.1091818153802"/></g><g transform="translate(-78,-30) scale(1,1)"><path fill="none" stroke="#000000" d="M 532.80014933638 757.3066232366605 L 538 767 L 541.1774027765504 756.4688978926434 L 535.810918181538 745.1091818153802 L 532.80014933638 757.3066232366605" stroke-miterlimit="10"/></g><g transform="translate(-78,-30) scale(1,1)"><path fill="none" stroke="#000000" d="M 847 463 L 763 527" stroke-miterlimit="10"/></g><g transform="translate(-78,-30) scale(1,1)"><path fill="#FFFFFF" stroke="none" d="M 768.532564266569 517.4925959044393 L 763 527 L 773.634863617693 524.1893638027896 L 780.499497840715 513.6670492642172"/></g><g transform="translate(-78,-30) scale(1,1)"><path fill="none" stroke="#000000" d="M 768.532564266569 517.4925959044393 L 763 527 L 773.634863617693 524.1893638027896 L 780.499497840715 513.6670492642172 L 768.532564266569 517.4925959044393" stroke-miterlimit="10"/></g><g transform="translate(-78,-30) scale(1,1)"><path fill="none" stroke="#000000" d="M 847 430 L 783 442" stroke-miterlimit="10"/></g><g transform="translate(-78,-30) scale(1,1)"><path fill="none" stroke="#000000" d="M 792.2128446018916 435.9897176155028 L 783 442 L 793.7643763229395 444.2645534610914" stroke-miterlimit="10"/></g><g transform="translate(-78,-30) scale(1,1)"><path fill="none" stroke="#000000" d="M 586 617 L 683 679" stroke-miterlimit="10"/></g><g transform="translate(-78,-30) scale(1,1)"><path fill="none" stroke="#000000" d="M 672.1699841525026 677.0736675409069 L 683 679 L 676.7041450985214 669.9798996092322" stroke-miterlimit="10"/></g><g transform="translate(-78,-30) scale(1,1)"><path fill="none" stroke="#000000" d="M 226 322 L 319 362" stroke-miterlimit="10"/></g><g transform="translate(-78,-30) scale(1,1)"><path fill="#FFFFFF" stroke="none" d="M 308.00100083393096 361.8516175724277 L 319 362 L 311.3274553241527 354.11761088266206 L 298.79006657809225 353.30755551745904"/></g><g transform="translate(-78,-30) scale(1,1)"><path fill="none" stroke="#000000" d="M 308.00100083393096 361.8516175724277 L 319 362 L 311.3274553241527 354.11761088266206 L 298.79006657809225 353.30755551745904 L 308.00100083393096 361.8516175724277" stroke-miterlimit="10"/></g><g transform="translate(-78,-30) scale(1,1)"><path fill="none" stroke="#000000" d="M 222 398 L 319 385" stroke-miterlimit="10"/></g><g transform="translate(-78,-30) scale(1,1)"><path fill="#FFFFFF" stroke="none" d="M 309.486545157726 390.52215329052115 L 319 385 L 308.368219530037 382.1777236069952 L 297.1949544249797 387.9223256956213"/></g><g transform="translate(-78,-30) scale(1,1)"><path fill="none" stroke="#000000" d="M 309.486545157726 390.52215329052115 L 319 385 L 308.368219530037 382.1777236069952 L 297.1949544249797 387.9223256956213 L 309.486545157726 390.52215329052115" stroke-miterlimit="10"/></g><g transform="translate(-78,-30) scale(1,1)"><path fill="none" stroke="#000000" d="M 869 478 L 747 679" stroke-miterlimit="10"/></g><g transform="translate(-78,-30) scale(1,1)"><path fill="#FFFFFF" stroke="none" d="M 748.6745512731936 668.1282072300174 L 747 679 L 755.8716049520293 672.4965681694102 L 758.4150772412464 660.193192414012"/></g><g transform="translate(-78,-30) scale(1,1)"><path fill="none" stroke="#000000" d="M 748.6745512731936 668.1282072300174 L 747 679 L 755.8716049520293 672.4965681694102 L 758.4150772412464 660.193192414012 L 748.6745512731936 668.1282072300174" stroke-miterlimit="10"/></g><g transform="translate(-78,-30) scale(1,1)"><path fill="none" stroke="#000000" d="M 647 292 L 609 268" stroke-miterlimit="10"/></g><g transform="translate(-78,-30) scale(1,1)"><path fill="#FFFFFF" stroke="none" d="M 619.8402817960689 269.8676965979028 L 609 268 L 615.3445758383973 276.9858976975495 L 627.6007558666813 279.7478458105356"/></g><g transform="translate(-78,-30) scale(1,1)"><path fill="none" stroke="#000000" d="M 619.8402817960689 269.8676965979028 L 609 268 L 615.3445758383973 276.9858976975495 L 627.6007558666813 279.7478458105356 L 619.8402817960689 269.8676965979028" stroke-miterlimit="10"/></g><g transform="translate(-78,-30) scale(1,1)"><path fill="none" stroke="#000000" d="M 511 271 L 403 349" stroke-miterlimit="10" stroke-dasharray="3"/></g><g transform="translate(-78,-30) scale(1,1)"><path fill="none" stroke="#000000" d="M 408.7740365296702 339.6372812626869 L 403 349 L 413.70330229444505 346.4624184754521" stroke-miterlimit="10"/></g><g transform="translate(-78,-30) scale(1,1)"><path fill="none" stroke="#000000" d="M 647 332 L 403 373" stroke-miterlimit="10" stroke-dasharray="3"/></g><g transform="translate(-78,-30) scale(1,1)"><path fill="none" stroke="#000000" d="M 412.32461386540797 367.1646271532111 L 403 373 L 413.7197294068924 375.4672659854598" stroke-miterlimit="10"/></g><g transform="translate(-78,-30) scale(1,1)"><path fill="none" stroke="#000000" d="M 179 507 L 319 409" stroke-miterlimit="10" stroke-dasharray="3"/></g><g transform="translate(-78,-30) scale(1,1)"><path fill="none" stroke="#000000" d="M 313.088412279782 418.2764826645754 L 319 409 L 308.260412437774 411.3793400331354" stroke-miterlimit="10"/></g><g transform="translate(-78,-30) scale(1,1)"><rect fill="#C0C0C0" stroke="none" x="207" y="519" width="79.458984375" height="87" opacity="0.2"/></g><g transform="translate(-78,-30) scale(1,1)"><rect fill="#ffffff" stroke="none" x="200" y="512" width="79.458984375" height="87"/></g><g transform="translate(-78,-30) scale(1,1)"><path fill="none" stroke="#000000" d="M 200 512 L 279.458984375 512 L 279.458984375 599 L 200 599 L 200 512 Z Z" stroke-miterlimit="10"/></g><g transform="translate(-78,-30) scale(1,1)"><path fill="none" stroke="#000000" d="M 200 537 L 279.458984375 537" stroke-miterlimit="10"/></g><g transform="translate(-78,-30) scale(1,1)"><path fill="none" stroke="#000000" d="M 200 590 L 279.458984375 590" stroke-miterlimit="10"/></g><g transform="translate(-78,-30) scale(1,1)"><g><path fill="none" stroke="none"/><text fill="#000000" stroke="none" font-family="Arial" font-size="13px" font-style="normal" font-weight="bold" text-decoration="none" x="212.647216796875" y="530">JsonInfo</text></g></g><g transform="translate(-78,-30) scale(1,1)"><g><path fill="none" stroke="none"/><text fill="#000000" stroke="none" font-family="Arial" font-size="13px" font-style="normal" font-weight="normal" text-decoration="none" x="205" y="553">-jsonPath</text></g></g><g transform="translate(-78,-30) scale(1,1)"><g><path fill="none" stroke="none"/><text fill="#000000" stroke="none" font-family="Arial" font-size="13px" font-style="normal" font-weight="normal" text-decoration="none" x="205" y="568">-description</text></g></g><g transform="translate(-78,-30) scale(1,1)"><g><path fill="none" stroke="none"/><text fill="#000000" stroke="none" font-family="Arial" font-size="13px" font-style="normal" font-weight="normal" text-decoration="none" x="205" y="583">-dataLabel</text></g></g><g transform="translate(-78,-30) scale(1,1)"><path fill="none" stroke="#000000" d="M 267 600 L 292 639" stroke-miterlimit="10"/></g><g transform="translate(-78,-30) scale(1,1)"><path fill="#FFFFFF" stroke="none" d="M 282.97164356053105 632.7159901335294 L 292 639 L 290.0594539283068 628.1725219490578 L 280.1273454761505 620.4786589427948"/></g><g transform="translate(-78,-30) scale(1,1)"><path fill="none" stroke="#000000" d="M 282.97164356053105 632.7159901335294 L 292 639 L 290.0594539283068 628.1725219490578 L 280.1273454761505 620.4786589427948 L 282.97164356053105 632.7159901335294" stroke-miterlimit="10"/></g><g transform="translate(-78,-30) scale(1,1)"><path fill="none" stroke="#000000" d="M 270 511 L 335 417" stroke-miterlimit="10" stroke-dasharray="3"/></g><g transform="translate(-78,-30) scale(1,1)"><path fill="none" stroke="#000000" d="M 332.6822871111187 427.7530557035995 L 335 417 L 325.75757089293666 422.96468810592046" stroke-miterlimit="10"/></g><g transform="translate(-78,-30) scale(1,1)"><path fill="none" stroke="#000000" d="M 354 511 L 359 417" stroke-miterlimit="10" stroke-dasharray="3"/></g><g transform="translate(-78,-30) scale(1,1)"><path fill="none" stroke="#000000" d="M 362.66377058904675 427.3719229205985 L 359 417 L 354.2566199971275 426.92473405932617" stroke-miterlimit="10"/></g><g transform="translate(-78,-30) scale(1,1)"><path fill="none" stroke="#000000" d="M 455 495 L 391 417" stroke-miterlimit="10" stroke-dasharray="3"/></g><g transform="translate(-78,-30) scale(1,1)"><path fill="none" stroke="#000000" d="M 400.7006195610232 422.18632626550766 L 391 417 L 394.192087401524 427.52666034509673" stroke-miterlimit="10"/></g><g transform="translate(-78,-30) scale(1,1)"><path fill="none" stroke="#000000" d="M 701 527 L 698 497" stroke-miterlimit="10"/></g><g transform="translate(-78,-30) scale(1,1)"><path fill="none" stroke="#000000" d="M 703.19985066362 506.69337676333953 L 698 497 L 694.8225972234496 507.53110210735656" stroke-miterlimit="10"/></g><g transform="translate(-78,-30) scale(1,1)"><path fill="none" stroke="#000000" d="M 847 414 L 403 383" stroke-miterlimit="10" stroke-dasharray="3"/></g><g transform="translate(-78,-30) scale(1,1)"><path fill="none" stroke="#000000" d="M 413.4311885224327 379.5085381271639 L 403 383 L 412.84480050658414 387.90712777351075" stroke-miterlimit="10"/></g><g transform="translate(-78,-30) scale(1,1)"><path fill="none" stroke="#000000" d="M 607 439 L 403 390" stroke-miterlimit="10" stroke-dasharray="3"/></g><g transform="translate(-78,-30) scale(1,1)"><path fill="none" stroke="#000000" d="M 413.8647625534744 388.28042602467366 L 403 390 L 411.89846969624864 396.46662485883826" stroke-miterlimit="10"/></g><g transform="translate(-78,-30) scale(1,1)"><path fill="none" stroke="#000000" d="M 161 584 L 287 783" stroke-miterlimit="10"/></g><g transform="translate(-78,-30) scale(1,1)"><path fill="#FFFFFF" stroke="none" d="M 278.0069160428438 776.6656143992066 L 287 783 L 285.12001636308634 772.1618423371434 L 275.2310764429268 764.4125731122415"/></g><g transform="translate(-78,-30) scale(1,1)"><path fill="none" stroke="#000000" d="M 278.0069160428438 776.6656143992066 L 287 783 L 285.12001636308634 772.1618423371434 L 275.2310764429268 764.4125731122415 L 278.0069160428438 776.6656143992066" stroke-miterlimit="10"/></g><g transform="translate(-78,-30) scale(1,1)"><path fill="none" stroke="#000000" d="M 559 143 L 560 199" stroke-miterlimit="10"/></g><g transform="translate(-78,-30) scale(1,1)"><path fill="none" stroke="#000000" d="M 555.6097058345732 188.9141030571882 L 560 199 L 564.0273993468339 188.76378710161214" stroke-miterlimit="10"/></g><g transform="translate(-78,-30) scale(1,1)"><path fill="none" stroke="#000000" d="M 407 229 L 511 234" stroke-miterlimit="10"/></g><g transform="translate(-78,-30) scale(1,1)"><path fill="none" stroke="#000000" d="M 500.6469026007017 237.71663480054778 L 511 234 L 501.0511969520101 229.30731229333261" stroke-miterlimit="10"/></g><g transform="translate(-78,-30) scale(1,1)"><path fill="none" stroke="#000000" d="M 519 117 L 407 191" stroke-miterlimit="10"/></g><g transform="translate(-78,-30) scale(1,1)"><path fill="#FFFFFF" stroke="none" d="M 413.1585513391228 181.8856023016664 L 407 191 L 417.79960583310196 188.9099009952565 L 425.3553770545486 178.87234016038752"/></g><g transform="translate(-78,-30) scale(1,1)"><path fill="none" stroke="#000000" d="M 413.1585513391228 181.8856023016664 L 407 191 L 417.79960583310196 188.9099009952565 L 425.3553770545486 178.87234016038752 L 413.1585513391228 181.8856023016664" stroke-miterlimit="10"/></g></g></svg>